<svg id="visual" viewBox="0 0 900 600" width="900" height="600" xmlns="http://www.w3.org/2000/svg" xmlns:xlink="http://www.w3.org/1999/xlink" version="1.1"><rect x="0" y="0" width="900" height="600" fill="#140021"></rect><path d="M322 600L158 600L158 565L313 565L313 529L121 529L121 494L210 494L210 459L123 459L123 424L123 424L123 388L114 388L114 353L137 353L137 318L176 318L176 282L191 282L191 247L168 247L168 212L127 212L127 176L279 176L279 141L121 141L121 106L279 106L279 71L234 71L234 35L237 35L237 0L900 0L900 35L900 35L900 71L900 71L900 106L900 106L900 141L900 141L900 176L900 176L900 212L900 212L900 247L900 247L900 282L900 282L900 318L900 318L900 353L900 353L900 388L900 388L900 424L900 424L900 459L900 459L900 494L900 494L900 529L900 529L900 565L900 565L900 600L900 600Z" fill="#560090"></path><path d="M331 600L275 600L275 565L369 565L369 529L333 529L333 494L244 494L244 459L282 459L282 424L328 424L328 388L310 388L310 353L299 353L299 318L319 318L319 282L378 282L378 247L271 247L271 212L356 212L356 176L308 176L308 141L301 141L301 106L299 106L299 71L248 71L248 35L280 35L280 0L900 0L900 35L900 35L900 71L900 71L900 106L900 106L900 141L900 141L900 176L900 176L900 212L900 212L900 247L900 247L900 282L900 282L900 318L900 318L900 353L900 353L900 388L900 388L900 424L900 424L900 459L900 459L900 494L900 494L900 529L900 529L900 565L900 565L900 600L900 600Z" fill="#6300a5"></path><path d="M371 600L382 600L382 565L530 565L530 529L514 529L514 494L486 494L486 459L509 459L509 424L439 424L439 388L357 388L357 353L431 353L431 318L499 318L499 282L482 282L482 247L414 247L414 212L358 212L358 176L423 176L423 141L397 141L397 106L523 106L523 71L368 71L368 35L490 35L490 0L900 0L900 35L900 35L900 71L900 71L900 106L900 106L900 141L900 141L900 176L900 176L900 212L900 212L900 247L900 247L900 282L900 282L900 318L900 318L900 353L900 353L900 388L900 388L900 424L900 424L900 459L900 459L900 494L900 494L900 529L900 529L900 565L900 565L900 600L900 600Z" fill="#7000bb"></path><path d="M606 600L572 600L572 565L586 565L586 529L529 529L529 494L514 494L514 459L601 459L601 424L497 424L497 388L498 388L498 353L627 353L627 318L556 318L556 282L533 282L533 247L617 247L617 212L517 212L517 176L532 176L532 141L537 141L537 106L607 106L607 71L607 71L607 35L614 35L614 0L900 0L900 35L900 35L900 71L900 71L900 106L900 106L900 141L900 141L900 176L900 176L900 212L900 212L900 247L900 247L900 282L900 282L900 318L900 318L900 353L900 353L900 388L900 388L900 424L900 424L900 459L900 459L900 494L900 494L900 529L900 529L900 565L900 565L900 600L900 600Z" fill="#7e00d1"></path><path d="M663 600L634 600L634 565L623 565L623 529L720 529L720 494L602 494L602 459L671 459L671 424L614 424L614 388L621 388L621 353L600 353L600 318L645 318L645 282L660 282L660 247L700 247L700 212L698 212L698 176L657 176L657 141L636 141L636 106L696 106L696 71L592 71L592 35L716 35L716 0L900 0L900 35L900 35L900 71L900 71L900 106L900 106L900 141L900 141L900 176L900 176L900 212L900 212L900 247L900 247L900 282L900 282L900 318L900 318L900 353L900 353L900 388L900 388L900 424L900 424L900 459L900 459L900 494L900 494L900 529L900 529L900 565L900 565L900 600L900 600Z" fill="#8b00e8"></path><path d="M740 600L727 600L727 565L800 565L800 529L796 529L796 494L787 494L787 459L733 459L733 424L748 424L748 388L756 388L756 353L762 353L762 318L718 318L718 282L772 282L772 247L763 247L763 212L739 212L739 176L773 176L773 141L717 141L717 106L729 106L729 71L778 71L778 35L744 35L744 0L900 0L900 35L900 35L900 71L900 71L900 106L900 106L900 141L900 141L900 176L900 176L900 212L900 212L900 247L900 247L900 282L900 282L900 318L900 318L900 353L900 353L900 388L900 388L900 424L900 424L900 459L900 459L900 494L900 494L900 529L900 529L900 565L900 565L900 600L900 600Z" fill="#9900ff"></path></svg>