<svg id="visual" viewBox="0 0 1700 400" width="1700" height="400" xmlns="http://www.w3.org/2000/svg" xmlns:xlink="http://www.w3.org/1999/xlink" version="1.1"><rect x="0" y="0" width="1700" height="400" fill="#1c023d"></rect><path d="M0 167L35.5 170.8C71 174.7 142 182.3 212.8 193.2C283.7 204 354.3 218 425.2 215.2C496 212.3 567 192.7 637.8 192.8C708.7 193 779.3 213 850.2 215.5C921 218 992 203 1062.8 185.8C1133.7 168.7 1204.3 149.3 1275.2 154C1346 158.7 1417 187.3 1487.8 196.7C1558.7 206 1629.3 196 1664.7 191L1700 186L1700 401L1664.7 401C1629.3 401 1558.7 401 1487.8 401C1417 401 1346 401 1275.2 401C1204.3 401 1133.7 401 1062.8 401C992 401 921 401 850.2 401C779.3 401 708.7 401 637.8 401C567 401 496 401 425.2 401C354.3 401 283.7 401 212.8 401C142 401 71 401 35.5 401L0 401Z" fill="#5a24c7"></path><path d="M0 255L35.5 248.3C71 241.7 142 228.3 212.8 221C283.7 213.7 354.3 212.3 425.2 216.5C496 220.7 567 230.3 637.8 227.8C708.7 225.3 779.3 210.7 850.2 200.5C921 190.3 992 184.7 1062.8 193.5C1133.7 202.3 1204.3 225.7 1275.2 229.2C1346 232.7 1417 216.3 1487.8 215.5C1558.7 214.7 1629.3 229.3 1664.7 236.7L1700 244L1700 401L1664.7 401C1629.3 401 1558.7 401 1487.8 401C1417 401 1346 401 1275.2 401C1204.3 401 1133.7 401 1062.8 401C992 401 921 401 850.2 401C779.3 401 708.7 401 637.8 401C567 401 496 401 425.2 401C354.3 401 283.7 401 212.8 401C142 401 71 401 35.5 401L0 401Z" fill="#652fcf"></path><path d="M0 290L35.5 286.3C71 282.7 142 275.3 212.8 270.2C283.7 265 354.3 262 425.2 265.2C496 268.3 567 277.7 637.8 282C708.7 286.3 779.3 285.7 850.2 272.3C921 259 992 233 1062.8 228.7C1133.7 224.3 1204.3 241.7 1275.2 249.2C1346 256.7 1417 254.3 1487.8 259.2C1558.7 264 1629.3 276 1664.7 282L1700 288L1700 401L1664.7 401C1629.3 401 1558.7 401 1487.8 401C1417 401 1346 401 1275.2 401C1204.3 401 1133.7 401 1062.8 401C992 401 921 401 850.2 401C779.3 401 708.7 401 637.8 401C567 401 496 401 425.2 401C354.3 401 283.7 401 212.8 401C142 401 71 401 35.5 401L0 401Z" fill="#7039d8"></path><path d="M0 311L35.5 300.2C71 289.3 142 267.7 212.8 266.2C283.7 264.7 354.3 283.3 425.2 294.3C496 305.3 567 308.7 637.8 299.3C708.7 290 779.3 268 850.2 260.5C921 253 992 260 1062.8 267.8C1133.7 275.7 1204.3 284.3 1275.2 286.3C1346 288.3 1417 283.7 1487.8 284.7C1558.7 285.7 1629.3 292.3 1664.7 295.7L1700 299L1700 401L1664.7 401C1629.3 401 1558.7 401 1487.8 401C1417 401 1346 401 1275.2 401C1204.3 401 1133.7 401 1062.8 401C992 401 921 401 850.2 401C779.3 401 708.7 401 637.8 401C567 401 496 401 425.2 401C354.3 401 283.7 401 212.8 401C142 401 71 401 35.5 401L0 401Z" fill="#7a43e0"></path><path d="M0 304L35.5 305.5C71 307 142 310 212.8 316.2C283.7 322.3 354.3 331.7 425.2 335.8C496 340 567 339 637.8 340C708.7 341 779.3 344 850.2 342.7C921 341.3 992 335.7 1062.8 333.7C1133.7 331.7 1204.3 333.3 1275.2 334C1346 334.7 1417 334.3 1487.8 337.3C1558.7 340.3 1629.3 346.7 1664.7 349.8L1700 353L1700 401L1664.7 401C1629.3 401 1558.7 401 1487.8 401C1417 401 1346 401 1275.2 401C1204.3 401 1133.7 401 1062.8 401C992 401 921 401 850.2 401C779.3 401 708.7 401 637.8 401C567 401 496 401 425.2 401C354.3 401 283.7 401 212.8 401C142 401 71 401 35.5 401L0 401Z" fill="#854ce9"></path><path d="M0 357L35.5 357.3C71 357.7 142 358.3 212.8 356.8C283.7 355.3 354.3 351.7 425.2 346.3C496 341 567 334 637.8 332.5C708.7 331 779.3 335 850.2 335.3C921 335.7 992 332.3 1062.8 336C1133.7 339.7 1204.3 350.3 1275.2 357.7C1346 365 1417 369 1487.8 365.5C1558.7 362 1629.3 351 1664.7 345.5L1700 340L1700 401L1664.7 401C1629.3 401 1558.7 401 1487.8 401C1417 401 1346 401 1275.2 401C1204.3 401 1133.7 401 1062.8 401C992 401 921 401 850.2 401C779.3 401 708.7 401 637.8 401C567 401 496 401 425.2 401C354.3 401 283.7 401 212.8 401C142 401 71 401 35.5 401L0 401Z" fill="#8f56f1"></path></svg>