<svg id="visual" viewBox="0 0 900 600" width="900" height="600" xmlns="http://www.w3.org/2000/svg" xmlns:xlink="http://www.w3.org/1999/xlink" version="1.1"><g stroke-width="1" stroke-linejoin="bevel"><path d="M454 317.3L493.3 276.7L459 282.7Z" fill="#122a48" stroke="#122a48"></path><path d="M454 317.3L517.3 326.3L493.3 276.7Z" fill="#122a48" stroke="#122a48"></path><path d="M517.3 326.3L560.5 283.7L493.3 276.7Z" fill="#143249" stroke="#143249"></path><path d="M398.8 266.7L401.8 329.3L454 317.3Z" fill="#133049" stroke="#133049"></path><path d="M454 317.3L444 388.8L517.3 326.3Z" fill="#21153d" stroke="#21153d"></path><path d="M517.3 326.3L560.5 324.3L560.5 283.7Z" fill="#172245" stroke="#172245"></path><path d="M459 205.2L398.8 266.7L459 282.7Z" fill="#191f43" stroke="#191f43"></path><path d="M459 282.7L398.8 266.7L454 317.3Z" fill="#133049" stroke="#133049"></path><path d="M493.3 211.2L459 282.7L493.3 276.7Z" fill="#152546" stroke="#152546"></path><path d="M401.8 329.3L444 388.8L454 317.3Z" fill="#143249" stroke="#143249"></path><path d="M517.3 326.3L556.5 376.8L560.5 324.3Z" fill="#143249" stroke="#143249"></path><path d="M560.5 229.2L493.3 211.2L493.3 276.7Z" fill="#191f43" stroke="#191f43"></path><path d="M444 388.8L516.3 391.8L517.3 326.3Z" fill="#1e193f" stroke="#1e193f"></path><path d="M493.3 211.2L459 205.2L459 282.7Z" fill="#152546" stroke="#152546"></path><path d="M516.3 391.8L556.5 376.8L517.3 326.3Z" fill="#133049" stroke="#133049"></path><path d="M560.5 283.7L560.5 229.2L493.3 276.7Z" fill="#21153d" stroke="#21153d"></path><path d="M341.5 382.8L399.8 385.8L401.8 329.3Z" fill="#1e193f" stroke="#1e193f"></path><path d="M401.8 329.3L399.8 385.8L444 388.8Z" fill="#122d48" stroke="#122d48"></path><path d="M459 205.2L398.8 221.2L398.8 266.7Z" fill="#172245" stroke="#172245"></path><path d="M349.5 261.7L348.5 319.3L398.8 266.7Z" fill="#152546" stroke="#152546"></path><path d="M398.8 266.7L348.5 319.3L401.8 329.3Z" fill="#1c1c42" stroke="#1c1c42"></path><path d="M505.3 166.6L441 172.6L459 205.2Z" fill="#122a48" stroke="#122a48"></path><path d="M459 205.2L441 172.6L398.8 221.2Z" fill="#133049" stroke="#133049"></path><path d="M505.3 166.6L459 205.2L493.3 211.2Z" fill="#191f43" stroke="#191f43"></path><path d="M339.5 230.2L349.5 261.7L398.8 221.2Z" fill="#122a48" stroke="#122a48"></path><path d="M398.8 221.2L349.5 261.7L398.8 266.7Z" fill="#1c1c42" stroke="#1c1c42"></path><path d="M557.5 165.6L505.3 166.6L493.3 211.2Z" fill="#152546" stroke="#152546"></path><path d="M391.8 443.4L455 440.4L444 388.8Z" fill="#1c1c42" stroke="#1c1c42"></path><path d="M444 388.8L455 440.4L516.3 391.8Z" fill="#21153d" stroke="#21153d"></path><path d="M516.3 391.8L573.5 436.4L556.5 376.8Z" fill="#172245" stroke="#172245"></path><path d="M455 440.4L504.3 442.4L516.3 391.8Z" fill="#21153d" stroke="#21153d"></path><path d="M630.8 334.3L626.8 259.7L560.5 283.7Z" fill="#152546" stroke="#152546"></path><path d="M560.5 283.7L626.8 259.7L560.5 229.2Z" fill="#122a48" stroke="#122a48"></path><path d="M560.5 229.2L557.5 165.6L493.3 211.2Z" fill="#21153d" stroke="#21153d"></path><path d="M630.8 334.3L560.5 283.7L560.5 324.3Z" fill="#1c1c42" stroke="#1c1c42"></path><path d="M624.8 382.8L630.8 334.3L556.5 376.8Z" fill="#122a48" stroke="#122a48"></path><path d="M556.5 376.8L630.8 334.3L560.5 324.3Z" fill="#152546" stroke="#152546"></path><path d="M612.8 210.2L557.5 165.6L560.5 229.2Z" fill="#1c1c42" stroke="#1c1c42"></path><path d="M338.5 153.6L339.5 230.2L398.8 221.2Z" fill="#21153d" stroke="#21153d"></path><path d="M278.3 261.7L287.3 328.3L348.5 319.3Z" fill="#122d48" stroke="#122d48"></path><path d="M348.5 319.3L341.5 382.8L401.8 329.3Z" fill="#152546" stroke="#152546"></path><path d="M399.8 385.8L391.8 443.4L444 388.8Z" fill="#132847" stroke="#132847"></path><path d="M287.3 328.3L341.5 382.8L348.5 319.3Z" fill="#132847" stroke="#132847"></path><path d="M626.8 259.7L612.8 210.2L560.5 229.2Z" fill="#143249" stroke="#143249"></path><path d="M504.3 442.4L573.5 436.4L516.3 391.8Z" fill="#1c1c42" stroke="#1c1c42"></path><path d="M461 108.1L404.8 157.6L441 172.6Z" fill="#122a48" stroke="#122a48"></path><path d="M441 172.6L404.8 157.6L398.8 221.2Z" fill="#172245" stroke="#172245"></path><path d="M461 108.1L441 172.6L505.3 166.6Z" fill="#143249" stroke="#143249"></path><path d="M605.8 435.4L624.8 382.8L556.5 376.8Z" fill="#191f43" stroke="#191f43"></path><path d="M341.5 382.8L391.8 443.4L399.8 385.8Z" fill="#1c1c42" stroke="#1c1c42"></path><path d="M455 440.4L510.3 486.9L504.3 442.4Z" fill="#191f43" stroke="#191f43"></path><path d="M607.8 481.9L605.8 435.4L573.5 436.4Z" fill="#122a48" stroke="#122a48"></path><path d="M573.5 436.4L605.8 435.4L556.5 376.8Z" fill="#132847" stroke="#132847"></path><path d="M443 485.9L510.3 486.9L455 440.4Z" fill="#172245" stroke="#172245"></path><path d="M504.3 442.4L510.3 486.9L573.5 436.4Z" fill="#1e193f" stroke="#1e193f"></path><path d="M391.8 443.4L443 485.9L455 440.4Z" fill="#122a48" stroke="#122a48"></path><path d="M612.8 210.2L621.8 172.6L557.5 165.6Z" fill="#122a48" stroke="#122a48"></path><path d="M665 207.2L621.8 172.6L612.8 210.2Z" fill="#21153d" stroke="#21153d"></path><path d="M278.3 261.7L348.5 319.3L349.5 261.7Z" fill="#191f43" stroke="#191f43"></path><path d="M341.5 382.8L331.5 438.4L391.8 443.4Z" fill="#132847" stroke="#132847"></path><path d="M503.3 106.1L505.3 166.6L557.5 165.6Z" fill="#152546" stroke="#152546"></path><path d="M503.3 106.1L461 108.1L505.3 166.6Z" fill="#191f43" stroke="#191f43"></path><path d="M569.5 99.1L503.3 106.1L557.5 165.6Z" fill="#122a48" stroke="#122a48"></path><path d="M291.3 435.4L331.5 438.4L341.5 382.8Z" fill="#191f43" stroke="#191f43"></path><path d="M391.8 443.4L396.8 494.9L443 485.9Z" fill="#172245" stroke="#172245"></path><path d="M685 382.8L630.8 334.3L624.8 382.8Z" fill="#122d48" stroke="#122d48"></path><path d="M685 382.8L682 323.3L630.8 334.3Z" fill="#21153d" stroke="#21153d"></path><path d="M630.8 334.3L683 271.7L626.8 259.7Z" fill="#143249" stroke="#143249"></path><path d="M626.8 259.7L665 207.2L612.8 210.2Z" fill="#133049" stroke="#133049"></path><path d="M682 323.3L683 271.7L630.8 334.3Z" fill="#152546" stroke="#152546"></path><path d="M404.8 157.6L338.5 153.6L398.8 221.2Z" fill="#132847" stroke="#132847"></path><path d="M339.5 230.2L278.3 261.7L349.5 261.7Z" fill="#1c1c42" stroke="#1c1c42"></path><path d="M384.8 117.1L338.5 153.6L404.8 157.6Z" fill="#143249" stroke="#143249"></path><path d="M276.3 208.2L278.3 261.7L339.5 230.2Z" fill="#132847" stroke="#132847"></path><path d="M683 271.7L665 207.2L626.8 259.7Z" fill="#132847" stroke="#132847"></path><path d="M349.5 488.9L396.8 494.9L391.8 443.4Z" fill="#122a48" stroke="#122a48"></path><path d="M443 485.9L505.3 536.5L510.3 486.9Z" fill="#152546" stroke="#152546"></path><path d="M461 108.1L384.8 117.1L404.8 157.6Z" fill="#152546" stroke="#152546"></path><path d="M505.3 536.5L563.5 497.9L510.3 486.9Z" fill="#21153d" stroke="#21153d"></path><path d="M510.3 486.9L563.5 497.9L573.5 436.4Z" fill="#172245" stroke="#172245"></path><path d="M665 427.4L685 382.8L624.8 382.8Z" fill="#143249" stroke="#143249"></path><path d="M563.5 497.9L607.8 481.9L573.5 436.4Z" fill="#133049" stroke="#133049"></path><path d="M665 427.4L624.8 382.8L605.8 435.4Z" fill="#1c1c42" stroke="#1c1c42"></path><path d="M682 323.3L729.3 284.7L683 271.7Z" fill="#152546" stroke="#152546"></path><path d="M607.8 481.9L665 427.4L605.8 435.4Z" fill="#21153d" stroke="#21153d"></path><path d="M612.8 116.1L569.5 99.1L557.5 165.6Z" fill="#152546" stroke="#152546"></path><path d="M503.3 106.1L510.3 54.5L461 108.1Z" fill="#1c1c42" stroke="#1c1c42"></path><path d="M612.8 116.1L557.5 165.6L621.8 172.6Z" fill="#172245" stroke="#172245"></path><path d="M287.3 328.3L271.3 385.8L341.5 382.8Z" fill="#1e193f" stroke="#1e193f"></path><path d="M234 333.3L271.3 385.8L287.3 328.3Z" fill="#1e193f" stroke="#1e193f"></path><path d="M279.3 171.6L276.3 208.2L339.5 230.2Z" fill="#1e193f" stroke="#1e193f"></path><path d="M278.3 261.7L234 333.3L287.3 328.3Z" fill="#122d48" stroke="#122d48"></path><path d="M331.5 438.4L349.5 488.9L391.8 443.4Z" fill="#132847" stroke="#132847"></path><path d="M291.3 435.4L349.5 488.9L331.5 438.4Z" fill="#122d48" stroke="#122d48"></path><path d="M680 162.6L612.8 116.1L621.8 172.6Z" fill="#122a48" stroke="#122a48"></path><path d="M271.3 385.8L291.3 435.4L341.5 382.8Z" fill="#191f43" stroke="#191f43"></path><path d="M448 542.5L505.3 536.5L443 485.9Z" fill="#21153d" stroke="#21153d"></path><path d="M563.5 497.9L569.5 533.5L607.8 481.9Z" fill="#143249" stroke="#143249"></path><path d="M448 542.5L443 485.9L396.8 494.9Z" fill="#122d48" stroke="#122d48"></path><path d="M270.3 113.1L279.3 171.6L338.5 153.6Z" fill="#1e193f" stroke="#1e193f"></path><path d="M338.5 153.6L279.3 171.6L339.5 230.2Z" fill="#1c1c42" stroke="#1c1c42"></path><path d="M383.8 540.5L448 542.5L396.8 494.9Z" fill="#172245" stroke="#172245"></path><path d="M390.8 49.5L339.5 105.1L384.8 117.1Z" fill="#1c1c42" stroke="#1c1c42"></path><path d="M384.8 117.1L339.5 105.1L338.5 153.6Z" fill="#152546" stroke="#152546"></path><path d="M390.8 49.5L384.8 117.1L461 108.1Z" fill="#122d48" stroke="#122d48"></path><path d="M665 207.2L680 162.6L621.8 172.6Z" fill="#152546" stroke="#152546"></path><path d="M718.3 206.2L680 162.6L665 207.2Z" fill="#21153d" stroke="#21153d"></path><path d="M610.8 541.5L569.5 533.5L569.5 600Z" fill="#133049" stroke="#133049"></path><path d="M505.3 536.5L569.5 533.5L563.5 497.9Z" fill="#191f43" stroke="#191f43"></path><path d="M607.8 481.9L678 488.9L665 427.4Z" fill="#122a48" stroke="#122a48"></path><path d="M221 272.7L278.3 261.7L221 216.2Z" fill="#1e193f" stroke="#1e193f"></path><path d="M221 272.7L234 333.3L278.3 261.7Z" fill="#21153d" stroke="#21153d"></path><path d="M271.3 385.8L231 448.4L291.3 435.4Z" fill="#172245" stroke="#172245"></path><path d="M731.3 336.3L682 323.3L685 382.8Z" fill="#122a48" stroke="#122a48"></path><path d="M731.3 336.3L729.3 284.7L682 323.3Z" fill="#122a48" stroke="#122a48"></path><path d="M683 271.7L718.3 206.2L665 207.2Z" fill="#172245" stroke="#172245"></path><path d="M571.5 49.5L510.3 54.5L569.5 99.1Z" fill="#1c1c42" stroke="#1c1c42"></path><path d="M569.5 99.1L510.3 54.5L503.3 106.1Z" fill="#172245" stroke="#172245"></path><path d="M743.3 392.8L731.3 336.3L685 382.8Z" fill="#152546" stroke="#152546"></path><path d="M343.5 547.5L383.8 540.5L349.5 488.9Z" fill="#133049" stroke="#133049"></path><path d="M349.5 488.9L383.8 540.5L396.8 494.9Z" fill="#1e193f" stroke="#1e193f"></path><path d="M729.3 284.7L718.3 206.2L683 271.7Z" fill="#122d48" stroke="#122d48"></path><path d="M234 333.3L234 382.8L271.3 385.8Z" fill="#132847" stroke="#132847"></path><path d="M273.3 536.5L343.5 547.5L349.5 488.9Z" fill="#133049" stroke="#133049"></path><path d="M221 216.2L278.3 261.7L276.3 208.2Z" fill="#1e193f" stroke="#1e193f"></path><path d="M234 333.3L179.8 379.8L234 382.8Z" fill="#122a48" stroke="#122a48"></path><path d="M510.3 54.5L459 42.5L461 108.1Z" fill="#172245" stroke="#172245"></path><path d="M459 42.5L390.8 49.5L461 108.1Z" fill="#21153d" stroke="#21153d"></path><path d="M623.8 52.5L571.5 49.5L569.5 99.1Z" fill="#122d48" stroke="#122d48"></path><path d="M510.3 54.5L509.3 0L459 42.5Z" fill="#132847" stroke="#132847"></path><path d="M623.8 52.5L569.5 99.1L612.8 116.1Z" fill="#172245" stroke="#172245"></path><path d="M669 539.5L678 488.9L607.8 481.9Z" fill="#122a48" stroke="#122a48"></path><path d="M665 427.4L726.3 429.4L685 382.8Z" fill="#21153d" stroke="#21153d"></path><path d="M569.5 533.5L610.8 541.5L607.8 481.9Z" fill="#122a48" stroke="#122a48"></path><path d="M508.3 600L569.5 533.5L505.3 536.5Z" fill="#132847" stroke="#132847"></path><path d="M279.3 171.6L221 216.2L276.3 208.2Z" fill="#172245" stroke="#172245"></path><path d="M220 155.6L221 216.2L279.3 171.6Z" fill="#21153d" stroke="#21153d"></path><path d="M270.3 113.1L338.5 153.6L339.5 105.1Z" fill="#191f43" stroke="#191f43"></path><path d="M678 488.9L726.3 429.4L665 427.4Z" fill="#122a48" stroke="#122a48"></path><path d="M790.5 207.2L719.3 164.6L718.3 206.2Z" fill="#132847" stroke="#132847"></path><path d="M718.3 206.2L719.3 164.6L680 162.6Z" fill="#132847" stroke="#132847"></path><path d="M680 162.6L681 96.1L612.8 116.1Z" fill="#21153d" stroke="#21153d"></path><path d="M726.3 429.4L743.3 392.8L685 382.8Z" fill="#152546" stroke="#152546"></path><path d="M781.5 320.3L777.5 268.7L729.3 284.7Z" fill="#21153d" stroke="#21153d"></path><path d="M729.3 284.7L777.5 268.7L718.3 206.2Z" fill="#152546" stroke="#152546"></path><path d="M268.3 494.9L349.5 488.9L291.3 435.4Z" fill="#122d48" stroke="#122d48"></path><path d="M449 600L508.3 600L448 542.5Z" fill="#122d48" stroke="#122d48"></path><path d="M448 542.5L508.3 600L505.3 536.5Z" fill="#133049" stroke="#133049"></path><path d="M390.8 49.5L329.5 63.5L339.5 105.1Z" fill="#172245" stroke="#172245"></path><path d="M329.5 63.5L270.3 113.1L339.5 105.1Z" fill="#122d48" stroke="#122d48"></path><path d="M231 448.4L268.3 494.9L291.3 435.4Z" fill="#143249" stroke="#143249"></path><path d="M234 382.8L231 448.4L271.3 385.8Z" fill="#122a48" stroke="#122a48"></path><path d="M179.8 379.8L231 448.4L234 382.8Z" fill="#152546" stroke="#152546"></path><path d="M725.3 111.1L681 96.1L680 162.6Z" fill="#132847" stroke="#132847"></path><path d="M681 96.1L623.8 52.5L612.8 116.1Z" fill="#122d48" stroke="#122d48"></path><path d="M550.5 0L509.3 0L510.3 54.5Z" fill="#122a48" stroke="#122a48"></path><path d="M449 600L448 542.5L385.8 600Z" fill="#1e193f" stroke="#1e193f"></path><path d="M385.8 600L448 542.5L383.8 540.5Z" fill="#132847" stroke="#132847"></path><path d="M781.5 320.3L729.3 284.7L731.3 336.3Z" fill="#21153d" stroke="#21153d"></path><path d="M719.3 164.6L725.3 111.1L680 162.6Z" fill="#133049" stroke="#133049"></path><path d="M270.3 113.1L220 155.6L279.3 171.6Z" fill="#21153d" stroke="#21153d"></path><path d="M166.8 265.7L177.8 336.3L221 272.7Z" fill="#1e193f" stroke="#1e193f"></path><path d="M792.5 375.8L781.5 320.3L731.3 336.3Z" fill="#133049" stroke="#133049"></path><path d="M792.5 375.8L731.3 336.3L743.3 392.8Z" fill="#143249" stroke="#143249"></path><path d="M610.8 541.5L669 539.5L607.8 481.9Z" fill="#191f43" stroke="#191f43"></path><path d="M678 488.9L738.3 482.9L726.3 429.4Z" fill="#1e193f" stroke="#1e193f"></path><path d="M620.8 600L669 539.5L610.8 541.5Z" fill="#1c1c42" stroke="#1c1c42"></path><path d="M166.8 265.7L221 272.7L221 216.2Z" fill="#132847" stroke="#132847"></path><path d="M221 272.7L177.8 336.3L234 333.3Z" fill="#172245" stroke="#172245"></path><path d="M550.5 0L510.3 54.5L571.5 49.5Z" fill="#133049" stroke="#133049"></path><path d="M459 42.5L437 0L390.8 49.5Z" fill="#133049" stroke="#133049"></path><path d="M390.8 49.5L334.5 0L329.5 63.5Z" fill="#133049" stroke="#133049"></path><path d="M509.3 0L437 0L459 42.5Z" fill="#152546" stroke="#152546"></path><path d="M508.3 600L569.5 600L569.5 533.5Z" fill="#1c1c42" stroke="#1c1c42"></path><path d="M177.8 336.3L179.8 379.8L234 333.3Z" fill="#133049" stroke="#133049"></path><path d="M325.5 600L385.8 600L343.5 547.5Z" fill="#152546" stroke="#152546"></path><path d="M343.5 547.5L385.8 600L383.8 540.5Z" fill="#1e193f" stroke="#1e193f"></path><path d="M608.8 0L550.5 0L571.5 49.5Z" fill="#133049" stroke="#133049"></path><path d="M681 96.1L670 45.5L623.8 52.5Z" fill="#132847" stroke="#132847"></path><path d="M623.8 52.5L608.8 0L571.5 49.5Z" fill="#191f43" stroke="#191f43"></path><path d="M799.5 161.6L725.3 111.1L719.3 164.6Z" fill="#191f43" stroke="#191f43"></path><path d="M232 491.9L273.3 536.5L268.3 494.9Z" fill="#172245" stroke="#172245"></path><path d="M268.3 494.9L273.3 536.5L349.5 488.9Z" fill="#122d48" stroke="#122d48"></path><path d="M232 491.9L268.3 494.9L231 448.4Z" fill="#132847" stroke="#132847"></path><path d="M174.8 485.9L232 491.9L231 448.4Z" fill="#122d48" stroke="#122d48"></path><path d="M270.3 113.1L237 107.1L220 155.6Z" fill="#1c1c42" stroke="#1c1c42"></path><path d="M274.3 48.5L237 107.1L270.3 113.1Z" fill="#172245" stroke="#172245"></path><path d="M274.3 48.5L270.3 113.1L329.5 63.5Z" fill="#122a48" stroke="#122a48"></path><path d="M734.3 536.5L738.3 482.9L678 488.9Z" fill="#172245" stroke="#172245"></path><path d="M795.5 442.4L792.5 375.8L743.3 392.8Z" fill="#152546" stroke="#152546"></path><path d="M160.8 221.2L221 216.2L155.8 170.6Z" fill="#191f43" stroke="#191f43"></path><path d="M160.8 221.2L166.8 265.7L221 216.2Z" fill="#132847" stroke="#132847"></path><path d="M119.5 434.4L174.8 446.4L179.8 379.8Z" fill="#191f43" stroke="#191f43"></path><path d="M437 0L392.8 0L390.8 49.5Z" fill="#122d48" stroke="#122d48"></path><path d="M730.3 59.5L670 45.5L681 96.1Z" fill="#1e193f" stroke="#1e193f"></path><path d="M795.5 442.4L743.3 392.8L726.3 429.4Z" fill="#122a48" stroke="#122a48"></path><path d="M842.8 279.7L790.5 207.2L777.5 268.7Z" fill="#191f43" stroke="#191f43"></path><path d="M835.8 315.3L777.5 268.7L781.5 320.3Z" fill="#143249" stroke="#143249"></path><path d="M777.5 268.7L790.5 207.2L718.3 206.2Z" fill="#133049" stroke="#133049"></path><path d="M288.3 0L274.3 48.5L329.5 63.5Z" fill="#143249" stroke="#143249"></path><path d="M569.5 600L620.8 600L610.8 541.5Z" fill="#143249" stroke="#143249"></path><path d="M669 539.5L734.3 536.5L678 488.9Z" fill="#1e193f" stroke="#1e193f"></path><path d="M670 45.5L608.8 0L623.8 52.5Z" fill="#132847" stroke="#132847"></path><path d="M155.8 170.6L221 216.2L220 155.6Z" fill="#133049" stroke="#133049"></path><path d="M119.5 336.3L179.8 379.8L177.8 336.3Z" fill="#172245" stroke="#172245"></path><path d="M155.8 170.6L220 155.6L169.8 97.1Z" fill="#172245" stroke="#172245"></path><path d="M273.3 536.5L325.5 600L343.5 547.5Z" fill="#132847" stroke="#132847"></path><path d="M276.3 600L325.5 600L273.3 536.5Z" fill="#1e193f" stroke="#1e193f"></path><path d="M392.8 0L334.5 0L390.8 49.5Z" fill="#172245" stroke="#172245"></path><path d="M179.8 379.8L174.8 446.4L231 448.4Z" fill="#1e193f" stroke="#1e193f"></path><path d="M232 491.9L214 540.5L273.3 536.5Z" fill="#172245" stroke="#172245"></path><path d="M119.5 336.3L177.8 336.3L166.8 265.7Z" fill="#132847" stroke="#132847"></path><path d="M738.3 482.9L795.5 442.4L726.3 429.4Z" fill="#172245" stroke="#172245"></path><path d="M835.8 173.6L799.5 161.6L790.5 207.2Z" fill="#132847" stroke="#132847"></path><path d="M775.5 487.9L795.5 442.4L738.3 482.9Z" fill="#152546" stroke="#152546"></path><path d="M742.3 600L734.3 536.5L669 539.5Z" fill="#122a48" stroke="#122a48"></path><path d="M620.8 600L662 600L669 539.5Z" fill="#143249" stroke="#143249"></path><path d="M734.3 536.5L775.5 487.9L738.3 482.9Z" fill="#152546" stroke="#152546"></path><path d="M725.3 111.1L730.3 59.5L681 96.1Z" fill="#172245" stroke="#172245"></path><path d="M670 45.5L680 0L608.8 0Z" fill="#152546" stroke="#152546"></path><path d="M789.5 65.5L730.3 59.5L725.3 111.1Z" fill="#191f43" stroke="#191f43"></path><path d="M835.8 315.3L781.5 320.3L792.5 375.8Z" fill="#132847" stroke="#132847"></path><path d="M790.5 207.2L799.5 161.6L719.3 164.6Z" fill="#122d48" stroke="#122d48"></path><path d="M169.8 97.1L220 155.6L237 107.1Z" fill="#143249" stroke="#143249"></path><path d="M119.5 434.4L174.8 485.9L174.8 446.4Z" fill="#133049" stroke="#133049"></path><path d="M274.3 48.5L226 61.5L237 107.1Z" fill="#21153d" stroke="#21153d"></path><path d="M228 0L226 61.5L274.3 48.5Z" fill="#152546" stroke="#152546"></path><path d="M848.8 388.8L835.8 315.3L792.5 375.8Z" fill="#172245" stroke="#172245"></path><path d="M119.5 336.3L166.8 265.7L99.5 281.7Z" fill="#1c1c42" stroke="#1c1c42"></path><path d="M174.8 446.4L174.8 485.9L231 448.4Z" fill="#132847" stroke="#132847"></path><path d="M174.8 485.9L214 540.5L232 491.9Z" fill="#1c1c42" stroke="#1c1c42"></path><path d="M334.5 0L288.3 0L329.5 63.5Z" fill="#132847" stroke="#132847"></path><path d="M225 600L276.3 600L273.3 536.5Z" fill="#191f43" stroke="#191f43"></path><path d="M99.5 281.7L166.8 265.7L160.8 221.2Z" fill="#132847" stroke="#132847"></path><path d="M835.8 315.3L842.8 279.7L777.5 268.7Z" fill="#191f43" stroke="#191f43"></path><path d="M728.3 0L680 0L670 45.5Z" fill="#143249" stroke="#143249"></path><path d="M226 61.5L169.8 97.1L237 107.1Z" fill="#133049" stroke="#133049"></path><path d="M101.5 211.2L99.5 281.7L160.8 221.2Z" fill="#191f43" stroke="#191f43"></path><path d="M176.8 42.5L169.8 97.1L226 61.5Z" fill="#122a48" stroke="#122a48"></path><path d="M835.8 173.6L798.5 107.1L799.5 161.6Z" fill="#21153d" stroke="#21153d"></path><path d="M799.5 161.6L798.5 107.1L725.3 111.1Z" fill="#1c1c42" stroke="#1c1c42"></path><path d="M730.3 59.5L728.3 0L670 45.5Z" fill="#1c1c42" stroke="#1c1c42"></path><path d="M848.8 445.4L848.8 388.8L795.5 442.4Z" fill="#1e193f" stroke="#1e193f"></path><path d="M795.5 442.4L848.8 388.8L792.5 375.8Z" fill="#133049" stroke="#133049"></path><path d="M835.8 315.3L900 314.3L842.8 279.7Z" fill="#1e193f" stroke="#1e193f"></path><path d="M854.8 209.2L835.8 173.6L790.5 207.2Z" fill="#1e193f" stroke="#1e193f"></path><path d="M101.5 211.2L160.8 221.2L155.8 170.6Z" fill="#21153d" stroke="#21153d"></path><path d="M100.5 368.8L179.8 379.8L119.5 336.3Z" fill="#133049" stroke="#133049"></path><path d="M100.5 368.8L119.5 434.4L179.8 379.8Z" fill="#122d48" stroke="#122d48"></path><path d="M174.8 485.9L169.8 540.5L214 540.5Z" fill="#132847" stroke="#132847"></path><path d="M48.3 338.3L100.5 368.8L119.5 336.3Z" fill="#122d48" stroke="#122d48"></path><path d="M842.8 279.7L854.8 209.2L790.5 207.2Z" fill="#172245" stroke="#172245"></path><path d="M900 274.7L854.8 209.2L842.8 279.7Z" fill="#1e193f" stroke="#1e193f"></path><path d="M107.5 151.6L101.5 211.2L155.8 170.6Z" fill="#122d48" stroke="#122d48"></path><path d="M852.8 101.1L798.5 107.1L835.8 173.6Z" fill="#1c1c42" stroke="#1c1c42"></path><path d="M831.8 55.5L789.5 65.5L798.5 107.1Z" fill="#172245" stroke="#172245"></path><path d="M798.5 107.1L789.5 65.5L725.3 111.1Z" fill="#143249" stroke="#143249"></path><path d="M104.5 485.9L169.8 540.5L174.8 485.9Z" fill="#132847" stroke="#132847"></path><path d="M214 540.5L225 600L273.3 536.5Z" fill="#122a48" stroke="#122a48"></path><path d="M175.8 600L225 600L214 540.5Z" fill="#122d48" stroke="#122d48"></path><path d="M789.5 0L728.3 0L730.3 59.5Z" fill="#122d48" stroke="#122d48"></path><path d="M288.3 0L228 0L274.3 48.5Z" fill="#122d48" stroke="#122d48"></path><path d="M850.8 502.9L848.8 445.4L795.5 442.4Z" fill="#21153d" stroke="#21153d"></path><path d="M848.8 388.8L900 314.3L835.8 315.3Z" fill="#132847" stroke="#132847"></path><path d="M850.8 502.9L795.5 442.4L775.5 487.9Z" fill="#152546" stroke="#152546"></path><path d="M792.5 547.5L775.5 487.9L734.3 536.5Z" fill="#21153d" stroke="#21153d"></path><path d="M662 600L742.3 600L669 539.5Z" fill="#21153d" stroke="#21153d"></path><path d="M774.5 600L792.5 547.5L734.3 536.5Z" fill="#172245" stroke="#172245"></path><path d="M228 0L176.8 42.5L226 61.5Z" fill="#132847" stroke="#132847"></path><path d="M169.8 97.1L107.5 151.6L155.8 170.6Z" fill="#1e193f" stroke="#1e193f"></path><path d="M106.5 100.1L107.5 151.6L169.8 97.1Z" fill="#132847" stroke="#132847"></path><path d="M119.5 434.4L104.5 485.9L174.8 485.9Z" fill="#122d48" stroke="#122d48"></path><path d="M169.8 540.5L175.8 600L214 540.5Z" fill="#191f43" stroke="#191f43"></path><path d="M67.3 423.4L104.5 485.9L119.5 434.4Z" fill="#152546" stroke="#152546"></path><path d="M742.3 600L774.5 600L734.3 536.5Z" fill="#132847" stroke="#132847"></path><path d="M792.5 547.5L850.8 502.9L775.5 487.9Z" fill="#152546" stroke="#152546"></path><path d="M900 390.8L900 314.3L848.8 388.8Z" fill="#122a48" stroke="#122a48"></path><path d="M900 314.3L900 274.7L842.8 279.7Z" fill="#172245" stroke="#172245"></path><path d="M900 158.6L852.8 101.1L835.8 173.6Z" fill="#172245" stroke="#172245"></path><path d="M851.8 545.5L850.8 502.9L792.5 547.5Z" fill="#122a48" stroke="#122a48"></path><path d="M900 431.4L900 390.8L848.8 388.8Z" fill="#152546" stroke="#152546"></path><path d="M48.3 338.3L67.3 390.8L100.5 368.8Z" fill="#122a48" stroke="#122a48"></path><path d="M100.5 368.8L67.3 390.8L119.5 434.4Z" fill="#172245" stroke="#172245"></path><path d="M48.3 338.3L119.5 336.3L99.5 281.7Z" fill="#122a48" stroke="#122a48"></path><path d="M50.3 278.7L99.5 281.7L51.3 227.2Z" fill="#122d48" stroke="#122d48"></path><path d="M900 158.6L835.8 173.6L854.8 209.2Z" fill="#122a48" stroke="#122a48"></path><path d="M789.5 65.5L789.5 0L730.3 59.5Z" fill="#143249" stroke="#143249"></path><path d="M117.5 556.5L175.8 600L169.8 540.5Z" fill="#132847" stroke="#132847"></path><path d="M115.5 60.5L106.5 100.1L169.8 97.1Z" fill="#143249" stroke="#143249"></path><path d="M51.3 227.2L99.5 281.7L101.5 211.2Z" fill="#1e193f" stroke="#1e193f"></path><path d="M115.5 60.5L169.8 97.1L176.8 42.5Z" fill="#172245" stroke="#172245"></path><path d="M900 431.4L848.8 388.8L848.8 445.4Z" fill="#152546" stroke="#152546"></path><path d="M67.3 390.8L67.3 423.4L119.5 434.4Z" fill="#122a48" stroke="#122a48"></path><path d="M852.8 101.1L831.8 55.5L798.5 107.1Z" fill="#191f43" stroke="#191f43"></path><path d="M51.3 227.2L101.5 211.2L50.3 150.6Z" fill="#172245" stroke="#172245"></path><path d="M67.3 390.8L0 427.4L67.3 423.4Z" fill="#1c1c42" stroke="#1c1c42"></path><path d="M900 274.7L900 205.2L854.8 209.2Z" fill="#152546" stroke="#152546"></path><path d="M831.8 55.5L789.5 0L789.5 65.5Z" fill="#122d48" stroke="#122d48"></path><path d="M50.3 278.7L48.3 338.3L99.5 281.7Z" fill="#133049" stroke="#133049"></path><path d="M228 0L168.8 0L176.8 42.5Z" fill="#143249" stroke="#143249"></path><path d="M50.3 150.6L101.5 211.2L107.5 151.6Z" fill="#133049" stroke="#133049"></path><path d="M50.3 278.7L0 334.3L48.3 338.3Z" fill="#191f43" stroke="#191f43"></path><path d="M111.5 0L115.5 60.5L176.8 42.5Z" fill="#172245" stroke="#172245"></path><path d="M106.5 100.1L50.3 150.6L107.5 151.6Z" fill="#21153d" stroke="#21153d"></path><path d="M900 501.9L900 431.4L848.8 445.4Z" fill="#133049" stroke="#133049"></path><path d="M52.3 541.5L117.5 556.5L104.5 485.9Z" fill="#143249" stroke="#143249"></path><path d="M104.5 485.9L117.5 556.5L169.8 540.5Z" fill="#1e193f" stroke="#1e193f"></path><path d="M839.8 600L851.8 545.5L792.5 547.5Z" fill="#1c1c42" stroke="#1c1c42"></path><path d="M850.8 502.9L900 501.9L848.8 445.4Z" fill="#122d48" stroke="#122d48"></path><path d="M900 205.2L900 158.6L854.8 209.2Z" fill="#152546" stroke="#152546"></path><path d="M852.8 101.1L900 54.5L831.8 55.5Z" fill="#1e193f" stroke="#1e193f"></path><path d="M52.3 97.1L50.3 150.6L106.5 100.1Z" fill="#191f43" stroke="#191f43"></path><path d="M0 264.7L0 334.3L50.3 278.7Z" fill="#191f43" stroke="#191f43"></path><path d="M900 544.5L900 501.9L850.8 502.9Z" fill="#1c1c42" stroke="#1c1c42"></path><path d="M61.3 600L121.5 600L117.5 556.5Z" fill="#172245" stroke="#172245"></path><path d="M117.5 556.5L121.5 600L175.8 600Z" fill="#1e193f" stroke="#1e193f"></path><path d="M774.5 600L839.8 600L792.5 547.5Z" fill="#122d48" stroke="#122d48"></path><path d="M851.8 545.5L900 544.5L850.8 502.9Z" fill="#122d48" stroke="#122d48"></path><path d="M900 158.6L900 100.1L852.8 101.1Z" fill="#143249" stroke="#143249"></path><path d="M831.8 55.5L855.8 0L789.5 0Z" fill="#1e193f" stroke="#1e193f"></path><path d="M67.3 423.4L55.3 500.9L104.5 485.9Z" fill="#172245" stroke="#172245"></path><path d="M0 427.4L55.3 500.9L67.3 423.4Z" fill="#122d48" stroke="#122d48"></path><path d="M55.3 51.5L106.5 100.1L115.5 60.5Z" fill="#1c1c42" stroke="#1c1c42"></path><path d="M55.3 51.5L52.3 97.1L106.5 100.1Z" fill="#143249" stroke="#143249"></path><path d="M168.8 0L111.5 0L176.8 42.5Z" fill="#143249" stroke="#143249"></path><path d="M0 264.7L50.3 278.7L51.3 227.2Z" fill="#132847" stroke="#132847"></path><path d="M48.3 338.3L0 383.8L67.3 390.8Z" fill="#21153d" stroke="#21153d"></path><path d="M0 264.7L51.3 227.2L0 209.2Z" fill="#122d48" stroke="#122d48"></path><path d="M0 209.2L51.3 227.2L0 173.6Z" fill="#172245" stroke="#172245"></path><path d="M900 54.5L855.8 0L831.8 55.5Z" fill="#1c1c42" stroke="#1c1c42"></path><path d="M900 600L900 544.5L851.8 545.5Z" fill="#1e193f" stroke="#1e193f"></path><path d="M0 334.3L0 383.8L48.3 338.3Z" fill="#1e193f" stroke="#1e193f"></path><path d="M900 100.1L900 54.5L852.8 101.1Z" fill="#191f43" stroke="#191f43"></path><path d="M0 173.6L51.3 227.2L50.3 150.6Z" fill="#133049" stroke="#133049"></path><path d="M0 490.9L52.3 541.5L55.3 500.9Z" fill="#1e193f" stroke="#1e193f"></path><path d="M55.3 500.9L52.3 541.5L104.5 485.9Z" fill="#122a48" stroke="#122a48"></path><path d="M111.5 0L55.3 51.5L115.5 60.5Z" fill="#122a48" stroke="#122a48"></path><path d="M0 97.1L0 173.6L50.3 150.6Z" fill="#152546" stroke="#152546"></path><path d="M0 383.8L0 427.4L67.3 390.8Z" fill="#21153d" stroke="#21153d"></path><path d="M0 97.1L50.3 150.6L52.3 97.1Z" fill="#143249" stroke="#143249"></path><path d="M0 550.5L61.3 600L52.3 541.5Z" fill="#133049" stroke="#133049"></path><path d="M52.3 541.5L61.3 600L117.5 556.5Z" fill="#191f43" stroke="#191f43"></path><path d="M839.8 600L900 600L851.8 545.5Z" fill="#172245" stroke="#172245"></path><path d="M0 427.4L0 490.9L55.3 500.9Z" fill="#122a48" stroke="#122a48"></path><path d="M900 54.5L900 0L855.8 0Z" fill="#132847" stroke="#132847"></path><path d="M0 41.5L0 97.1L55.3 51.5Z" fill="#1c1c42" stroke="#1c1c42"></path><path d="M55.3 51.5L0 97.1L52.3 97.1Z" fill="#143249" stroke="#143249"></path><path d="M111.5 0L49.3 0L55.3 51.5Z" fill="#132847" stroke="#132847"></path><path d="M0 490.9L0 550.5L52.3 541.5Z" fill="#191f43" stroke="#191f43"></path><path d="M49.3 0L0 41.5L55.3 51.5Z" fill="#122d48" stroke="#122d48"></path><path d="M0 550.5L0 600L61.3 600Z" fill="#132847" stroke="#132847"></path><path d="M49.3 0L0 0L0 41.5Z" fill="#1c1c42" stroke="#1c1c42"></path></g></svg>