<svg id="visual" viewBox="0 0 1700 400" width="1700" height="400" xmlns="http://www.w3.org/2000/svg" xmlns:xlink="http://www.w3.org/1999/xlink" version="1.1"><rect x="0" y="0" width="1700" height="400" fill="#1c0021"></rect><path d="M0 97L18.8 105.7C37.7 114.3 75.3 131.7 113.2 126.5C151 121.3 189 93.7 226.8 91.7C264.7 89.7 302.3 113.3 340 127C377.7 140.7 415.3 144.3 453.2 144.3C491 144.3 529 140.7 566.8 136.8C604.7 133 642.3 129 680 122.5C717.7 116 755.3 107 793.2 103.3C831 99.7 869 101.3 906.8 107C944.7 112.7 982.3 122.3 1020 130.3C1057.7 138.3 1095.3 144.7 1133.2 146.7C1171 148.7 1209 146.3 1246.8 136.5C1284.7 126.7 1322.3 109.3 1360 106.8C1397.7 104.3 1435.3 116.7 1473.2 118.8C1511 121 1549 113 1586.8 109.7C1624.7 106.3 1662.3 107.7 1681.2 108.3L1700 109L1700 401L1681.2 401C1662.3 401 1624.7 401 1586.8 401C1549 401 1511 401 1473.2 401C1435.3 401 1397.7 401 1360 401C1322.3 401 1284.7 401 1246.8 401C1209 401 1171 401 1133.2 401C1095.3 401 1057.7 401 1020 401C982.3 401 944.7 401 906.8 401C869 401 831 401 793.2 401C755.3 401 717.7 401 680 401C642.3 401 604.7 401 566.8 401C529 401 491 401 453.2 401C415.3 401 377.7 401 340 401C302.3 401 264.7 401 226.8 401C189 401 151 401 113.2 401C75.3 401 37.7 401 18.8 401L0 401Z" fill="#572991"></path><path d="M0 85L18.8 92.8C37.7 100.7 75.3 116.3 113.2 126.2C151 136 189 140 226.8 133.2C264.7 126.3 302.3 108.7 340 115.5C377.7 122.3 415.3 153.7 453.2 161.3C491 169 529 153 566.8 144.2C604.7 135.3 642.3 133.7 680 129C717.7 124.3 755.3 116.7 793.2 111.2C831 105.7 869 102.3 906.8 108.7C944.7 115 982.3 131 1020 138.2C1057.7 145.3 1095.3 143.7 1133.2 138.2C1171 132.7 1209 123.3 1246.8 125.3C1284.7 127.3 1322.3 140.7 1360 140.7C1397.7 140.7 1435.3 127.3 1473.2 115.7C1511 104 1549 94 1586.8 104C1624.7 114 1662.3 144 1681.2 159L1700 174L1700 401L1681.2 401C1662.3 401 1624.7 401 1586.8 401C1549 401 1511 401 1473.2 401C1435.3 401 1397.7 401 1360 401C1322.3 401 1284.7 401 1246.8 401C1209 401 1171 401 1133.2 401C1095.3 401 1057.7 401 1020 401C982.3 401 944.7 401 906.8 401C869 401 831 401 793.2 401C755.3 401 717.7 401 680 401C642.3 401 604.7 401 566.8 401C529 401 491 401 453.2 401C415.3 401 377.7 401 340 401C302.3 401 264.7 401 226.8 401C189 401 151 401 113.2 401C75.3 401 37.7 401 18.8 401L0 401Z" fill="#552283"></path><path d="M0 158L18.8 162C37.7 166 75.3 174 113.2 171.7C151 169.3 189 156.7 226.8 153.2C264.7 149.7 302.3 155.3 340 155.8C377.7 156.3 415.3 151.7 453.2 157.8C491 164 529 181 566.8 184.3C604.7 187.7 642.3 177.3 680 171.3C717.7 165.3 755.3 163.7 793.2 158.8C831 154 869 146 906.8 145C944.7 144 982.3 150 1020 157.3C1057.7 164.7 1095.3 173.3 1133.2 178.5C1171 183.7 1209 185.3 1246.8 187.7C1284.7 190 1322.3 193 1360 198C1397.7 203 1435.3 210 1473.2 214.3C1511 218.7 1549 220.3 1586.8 209C1624.7 197.7 1662.3 173.3 1681.2 161.2L1700 149L1700 401L1681.2 401C1662.3 401 1624.7 401 1586.8 401C1549 401 1511 401 1473.2 401C1435.3 401 1397.7 401 1360 401C1322.3 401 1284.7 401 1246.8 401C1209 401 1171 401 1133.2 401C1095.3 401 1057.7 401 1020 401C982.3 401 944.7 401 906.8 401C869 401 831 401 793.2 401C755.3 401 717.7 401 680 401C642.3 401 604.7 401 566.8 401C529 401 491 401 453.2 401C415.3 401 377.7 401 340 401C302.3 401 264.7 401 226.8 401C189 401 151 401 113.2 401C75.3 401 37.7 401 18.8 401L0 401Z" fill="#521b76"></path><path d="M0 260L18.8 253.5C37.7 247 75.3 234 113.2 223.8C151 213.7 189 206.3 226.8 200C264.7 193.7 302.3 188.3 340 195.5C377.7 202.7 415.3 222.3 453.2 232.2C491 242 529 242 566.8 241.3C604.7 240.7 642.3 239.3 680 232.5C717.7 225.7 755.3 213.3 793.2 210.7C831 208 869 215 906.8 221.7C944.7 228.3 982.3 234.7 1020 236.5C1057.7 238.3 1095.3 235.7 1133.2 233C1171 230.3 1209 227.7 1246.8 222.8C1284.7 218 1322.3 211 1360 210.3C1397.7 209.7 1435.3 215.3 1473.2 224.7C1511 234 1549 247 1586.8 250.8C1624.7 254.7 1662.3 249.3 1681.2 246.7L1700 244L1700 401L1681.2 401C1662.3 401 1624.7 401 1586.8 401C1549 401 1511 401 1473.2 401C1435.3 401 1397.7 401 1360 401C1322.3 401 1284.7 401 1246.8 401C1209 401 1171 401 1133.2 401C1095.3 401 1057.7 401 1020 401C982.3 401 944.7 401 906.8 401C869 401 831 401 793.2 401C755.3 401 717.7 401 680 401C642.3 401 604.7 401 566.8 401C529 401 491 401 453.2 401C415.3 401 377.7 401 340 401C302.3 401 264.7 401 226.8 401C189 401 151 401 113.2 401C75.3 401 37.7 401 18.8 401L0 401Z" fill="#4e1469"></path><path d="M0 231L18.8 232.8C37.7 234.7 75.3 238.3 113.2 239.3C151 240.3 189 238.7 226.8 244.8C264.7 251 302.3 265 340 266.5C377.7 268 415.3 257 453.2 249.5C491 242 529 238 566.8 235.7C604.7 233.3 642.3 232.7 680 235.2C717.7 237.7 755.3 243.3 793.2 243.2C831 243 869 237 906.8 237C944.7 237 982.3 243 1020 245.2C1057.7 247.3 1095.3 245.7 1133.2 253.7C1171 261.7 1209 279.3 1246.8 277.2C1284.7 275 1322.3 253 1360 242.8C1397.7 232.7 1435.3 234.3 1473.2 236.8C1511 239.3 1549 242.7 1586.8 249.5C1624.7 256.3 1662.3 266.7 1681.2 271.8L1700 277L1700 401L1681.2 401C1662.3 401 1624.7 401 1586.8 401C1549 401 1511 401 1473.2 401C1435.3 401 1397.7 401 1360 401C1322.3 401 1284.7 401 1246.8 401C1209 401 1171 401 1133.2 401C1095.3 401 1057.7 401 1020 401C982.3 401 944.7 401 906.8 401C869 401 831 401 793.2 401C755.3 401 717.7 401 680 401C642.3 401 604.7 401 566.8 401C529 401 491 401 453.2 401C415.3 401 377.7 401 340 401C302.3 401 264.7 401 226.8 401C189 401 151 401 113.2 401C75.3 401 37.7 401 18.8 401L0 401Z" fill="#490d5c"></path><path d="M0 291L18.8 290.5C37.7 290 75.3 289 113.2 290.3C151 291.7 189 295.3 226.8 293.3C264.7 291.3 302.3 283.7 340 285.3C377.7 287 415.3 298 453.2 298.5C491 299 529 289 566.8 289.3C604.7 289.7 642.3 300.3 680 302C717.7 303.7 755.3 296.3 793.2 290.7C831 285 869 281 906.8 288.5C944.7 296 982.3 315 1020 323.8C1057.7 332.7 1095.3 331.3 1133.2 321.2C1171 311 1209 292 1246.8 290.5C1284.7 289 1322.3 305 1360 311.3C1397.7 317.7 1435.3 314.3 1473.2 308.2C1511 302 1549 293 1586.8 292.8C1624.7 292.7 1662.3 301.3 1681.2 305.7L1700 310L1700 401L1681.2 401C1662.3 401 1624.7 401 1586.8 401C1549 401 1511 401 1473.2 401C1435.3 401 1397.7 401 1360 401C1322.3 401 1284.7 401 1246.8 401C1209 401 1171 401 1133.2 401C1095.3 401 1057.7 401 1020 401C982.3 401 944.7 401 906.8 401C869 401 831 401 793.2 401C755.3 401 717.7 401 680 401C642.3 401 604.7 401 566.8 401C529 401 491 401 453.2 401C415.3 401 377.7 401 340 401C302.3 401 264.7 401 226.8 401C189 401 151 401 113.2 401C75.3 401 37.7 401 18.8 401L0 401Z" fill="#440750"></path><path d="M0 339L18.8 341.2C37.7 343.3 75.3 347.7 113.2 344.7C151 341.7 189 331.3 226.8 329.5C264.7 327.7 302.3 334.3 340 340.2C377.7 346 415.3 351 453.2 348C491 345 529 334 566.8 330C604.7 326 642.3 329 680 334.2C717.7 339.3 755.3 346.7 793.2 348.5C831 350.3 869 346.7 906.8 349.3C944.7 352 982.3 361 1020 360.8C1057.7 360.7 1095.3 351.3 1133.2 344C1171 336.7 1209 331.3 1246.8 330.7C1284.7 330 1322.3 334 1360 342.5C1397.7 351 1435.3 364 1473.2 367.7C1511 371.3 1549 365.7 1586.8 365C1624.7 364.3 1662.3 368.7 1681.2 370.8L1700 373L1700 401L1681.2 401C1662.3 401 1624.7 401 1586.8 401C1549 401 1511 401 1473.2 401C1435.3 401 1397.7 401 1360 401C1322.3 401 1284.7 401 1246.8 401C1209 401 1171 401 1133.2 401C1095.3 401 1057.7 401 1020 401C982.3 401 944.7 401 906.8 401C869 401 831 401 793.2 401C755.3 401 717.7 401 680 401C642.3 401 604.7 401 566.8 401C529 401 491 401 453.2 401C415.3 401 377.7 401 340 401C302.3 401 264.7 401 226.8 401C189 401 151 401 113.2 401C75.3 401 37.7 401 18.8 401L0 401Z" fill="#3e0245"></path></svg>